<svg xmlns="http://www.w3.org/2000/svg" viewBox="0 0 54.101151 36.507755" height="36.508" width="54.101"><path d="M1.127 36.223c-.234-.234-.426-1.731-.426-3.326v-2.9h7.863l-.182 3.15-.18 3.15-3.325.176c-1.828.097-3.515-.016-3.75-.25zm45 0c-.234-.234-.426-1.731-.426-3.326v-2.9h7.863l-.182 3.15-.18 3.15-3.325.176c-1.828.097-3.515-.016-3.75-.25zm-28.002-6.666c-.812-.152-1.757-.659-2.1-1.126-.537-.73-1.109-.723-4.103.058-1.914.5-5.379.908-7.7.908H0l.43-6.75c.495-7.762.815-8.86 3.446-11.84 1.059-1.199 2.768-3.405 3.798-4.903 1.268-1.843 2.904-3.237 5.068-4.315C15.835.047 16.272-.003 26.469 0c5.793.002 11.573.292 12.845.646 2.583.717 7.332 4.764 7.93 6.756.213.712 1.287 2.24 2.387 3.395 2.567 2.697 3.27 4.64 3.27 9.039 0 1.974.268 3.56.6 3.56.33 0 .6 1.35.6 3v3l-4.65-.02c-2.557-.012-6.27-.413-8.25-.891-4.448-1.074-4.5-1.075-4.5-.063 0 .454-.844.994-1.875 1.2-2.082.416-14.387.368-16.701-.065zm18.276-8.26v-1.8H26.81c-8.776 0-9.61.092-9.8 1.085-.528 2.737-.09 2.855 9.93 2.68l9.462-.165v-1.8zm-22.23.363c-.5-.47-10.354-3.663-11.307-3.663-.2 0-.363.945-.363 2.1v2.1h6.12c3.62 0 5.887-.22 5.55-.537zm36.83-1.182c.111-.781-.033-1.654-.32-1.941-.603-.604-11.58 2.427-11.58 3.196 0 .28 2.633.43 5.85.336 5.637-.166 5.857-.224 6.05-1.591zm-5.3-11.042c0-1.64-3.087-5.174-5.567-6.375-2.349-1.137-3.662-1.264-13.033-1.264-9.41 0-10.677.124-13.064 1.28C11.697 4.208 7.9 8.298 7.9 9.686c0 .28 8.505.51 18.9.51 14.862 0 18.9-.163 18.9-.76z" fill="#d13327"/></svg>