<svg xmlns="http://www.w3.org/2000/svg" viewBox="0 0 43.790428 43.731194" height="43.731" width="43.79"><path d="M20.037 42.231c.445-1.772.513-1.756-2.359-.556-2.552 1.066-4.47.777-7.054-1.063l-1.74-1.239 5.078-1.91C24.288 33.58 30.83 27.56 32.104 20.77l.416-2.22 2.485 1.817c1.367.999 3.793 2.968 5.392 4.375l2.906 2.559-.955 2.285c-.94 2.251-.977 2.27-2.435 1.315-2.122-1.39-2.226-1.253-1.132 1.483l.982 2.452-1.869 1.869-1.869 1.868-1.517-1.425-1.518-1.426v2.49c0 2.149-.241 2.613-1.77 3.404-2.427 1.255-2.843 1.167-3.494-.735l-.564-1.65-.955 2.25c-.91 2.142-1.09 2.25-3.751 2.25-2.682 0-2.78-.06-2.42-1.5zM4.82 35.532l-1.258-1.598 1.557-1.021c1.311-.86 1.4-1.08.564-1.401-.545-.21-1.63-.38-2.413-.38-1.133 0-1.55-.46-2.048-2.25-.906-3.264-.798-3.75.833-3.75 2.283 0 2.284-.906.004-1.73C.287 22.76-.008 22.38 0 20.741c.014-2.778.754-3.65 2.686-3.166l1.624.408-1.318-1.852c-1.394-1.957-1.332-3.572.219-5.693.836-1.143.92-1.149 2.046-.13 1.148 1.04 1.183.995 1.578-1.986.373-2.81.623-3.188 3.187-4.814 1.53-.97 2.893-1.654 3.028-1.519.135.135-.089 1.82-.497 3.744-.409 1.923-.757 5.927-.774 8.897-.041 7.095 1.317 11.397 4.832 15.307 3.028 3.368 3.242 3.061-3.906 5.622-5.477 1.962-6.322 1.96-7.885-.028zm14.73-5.66c-2.3-1.81-4.549-6.016-5.109-9.556l-.492-3.112 2.002-.837c4.832-2.019 14.055-.122 14.026 2.885-.033 3.427-3.87 9.237-7.276 11.017-1.425.744-1.751.703-3.15-.398zm19.74-9c-4.697-3.905-11.968-7.544-16.027-8.023-2.01-.237-4.354-.06-6.397.485l-3.225.86.379-3.22c.47-4.003 1.469-8.717 2.041-9.638C16.3.954 17.505.452 18.741.22c2.233-.418 2.25-.406 2.25 1.573v1.994l1.65-1.85C24.205.18 24.422.115 26.897.656c2.7.589 2.771.759 1.552 3.741-.45 1.102-.36 1.094 1.652-.15 2.623-1.62 2.77-1.615 4.96.175 1.718 1.404 1.738 1.483.692 2.639-1.056 1.167-1.031 1.195 1.21 1.38 1.841.153 2.564.6 3.704 2.29l1.416 2.1-1.547.19c-1.924.236-1.965.898-.13 2.1 2.83 1.855 3.383 2.812 3.383 5.853 0 1.626-.202 2.942-.45 2.924-.247-.019-2.07-1.38-4.05-3.026z" fill="#d03225"/></svg>