<svg xmlns="http://www.w3.org/2000/svg" viewBox="0 0 61.429004 17.479759" height="17.48" width="61.429"><path d="M3.75 16.974c-5.194-.341-4.143-1.367 1.4-1.367 3.612 0 4.787.192 4.603.75-.28.85-1.127.937-6.003.617zm8.893-.51c-1.414-1.413-1.176-1.602 1.457-1.157 2.857.483 3.062.074.6-1.2-2.876-1.487-2.073-4.5 1.2-4.5 1.559 0 3 .955 3 1.987 0 .307-.989.362-2.25.127-2.338-.437-2.344-.02-.016 1.14 2.72 1.357 1.763 4.546-1.365 4.546-.926 0-2.108-.424-2.626-.943zm7.097-2.028c.623-4.697.732-4.829 4.024-4.829 2.21 0 2.936.223 2.936.9 0 .626-.63.9-2.065.9-1.135 0-2.231.27-2.435.6-.216.35.394.6 1.465.6 1.231 0 1.835.296 1.835.9 0 .6-.6.9-1.8.9-.99 0-1.8.27-1.8.6 0 .33.833.6 1.85.6 3.058 0 1.719 1.477-1.529 1.687l-2.885.186.404-3.044zm6.96 2.117c0-.47.316-2.225.703-3.9l.703-3.046h2.576c2.799 0 4.237 1.37 3.185 3.033-.302.477-.553 1.745-.558 2.817-.01 2.26-1.61 2.766-1.917.606-.277-1.939-2.058-2.07-2.53-.186-.403 1.603-2.162 2.153-2.162.676zm5.25-4.396c.147-.44-.267-.75-1-.75-.737 0-1.25.388-1.25.944 0 1.103 1.872.942 2.25-.194zm3.535 3c-.608-3.676-.46-5.55.438-5.55.505 0 .981.987 1.23 2.547l.408 2.546 1.14-2.546c.63-1.409 1.556-2.547 2.07-2.547 1.23 0 1.216.067-.88 4.217-2.193 4.345-3.826 4.84-4.406 1.333zm5.64 1.844c.014-.271.372-1.979.796-3.794.528-2.263 1.097-3.363 1.811-3.5.9-.174.983.111.611 2.1-.793 4.242-1.223 5.3-2.236 5.494-.554.107-.996-.028-.982-.3zm4.895-.314c-1.14-1.14-.864-4.536.48-5.88.66-.66 1.856-1.2 2.657-1.2 1.451 0 3.343 1.383 3.343 2.443 0 .747-1.633.713-2.1-.043-.675-1.091-2.115-.623-2.817.917-.934 2.05.165 3.317 1.924 2.218 1.565-.977 2.393-.927 2.393.144 0 1.821-4.41 2.872-5.88 1.401zm7.08-.514c0-.679.302-2.434.671-3.9l.671-2.666h2.93c2.203 0 2.928.223 2.928.9 0 .629-.633.9-2.1.9-1.155 0-2.1.27-2.1.6 0 .33.802.6 1.781.6 1.337 0 1.695.225 1.436.9-.197.513-1.092.9-2.081.9-.955 0-1.736.27-1.736.6 0 .33.81.6 1.8.6 1.2 0 1.8.3 1.8.9 0 .68-.733.9-3 .9-2.628 0-3-.153-3-1.234zm-50.7-1.7L0 14.08l2.934-.437c4.61-.686 7.705-.556 7.42.313-.28.85-4.303 1.11-7.954.515zM.9 12.006c-.62-.4.739-.584 4.35-.59 3.106-.006 5.25.235 5.25.59 0 .776-8.4.776-9.6 0zm3-1.753c-5.058-.45-3.3-1.247 2.75-1.247 3.555 0 4.45.181 4.45.9 0 .956-.22.967-7.2.347zM2.7 7.807c-2.617-.406-2.633-.422-.538-.51 1.19-.05 3.822-.263 5.85-.475 3.177-.332 3.688-.25 3.688.6 0 .8-.592.968-3.15.895-1.733-.05-4.365-.279-5.85-.51zm11.006-1.35c.185-.742.519-2.497.742-3.9l.405-2.55h2.924c2.198 0 2.923.223 2.923.9 0 .629-.633.9-2.1.9-1.155 0-2.1.27-2.1.6 0 .33.802.6 1.781.6 1.337 0 1.695.225 1.436.9-.197.513-1.092.9-2.081.9-.955 0-1.736.27-1.736.6 0 .33.81.6 1.8.6 1.2 0 1.8.3 1.8.9 0 .683-.74.9-3.065.9-2.878 0-3.045-.082-2.729-1.35zM20.1 7.3c0-.279.56-1.014 1.244-1.633 1.209-1.093 1.274-2.218.269-4.61-.34-.807-.15-1.05.823-1.05.724 0 1.264.385 1.264.9 0 .495.278.9.619.9.34 0 .774-.405.964-.9C25.643-.032 27.9-.37 27.9.514c0 .28-.555 1.01-1.234 1.624-1.19 1.078-1.232 2.035-.204 4.714.509 1.327-1.335 1.254-2.083-.082-.55-.984-.64-.984-1.727 0-1.215 1.1-2.552 1.377-2.552.53zm7.566-1.743C28.586.64 28.773.317 30.83.117c2.177-.214 3.671.71 3.671 2.27 0 1.375-1.884 3.02-3.457 3.02-.735 0-1.421.501-1.643 1.2-.21.66-.78 1.2-1.268 1.2-.7 0-.798-.475-.466-2.25zm4.616-2.841c.065-.326-.354-.683-.932-.794-.657-.127-1.05.167-1.05.785 0 1.044 1.773 1.052 1.982.008zM34.744 4.8C35.34.31 35.551.007 38.091.007c2.8 0 4.182 1.345 3.123 3.04-.393.63-.714 1.958-.714 2.952 0 2.147-1.613 2.534-1.908.458-.106-.742-.597-1.35-1.092-1.35-.495 0-.986.608-1.092 1.35-.105.743-.612 1.35-1.127 1.35-.776 0-.868-.512-.537-3.007zm4.406-2.243c.147-.44-.267-.75-1-.75-.737 0-1.25.388-1.25.944 0 1.103 1.872.942 2.25-.194zm2.55 4.049c0-.697.302-2.467.671-3.933.667-2.647.69-2.666 3.3-2.666 1.937 0 2.629.237 2.629.9 0 .596-.596.9-1.765.9-.97 0-1.931.27-2.135.6-.217.352.41.6 1.515.6 2.324 0 2.148 1.41-.211 1.69-2.219.263-2.022 1.31.246 1.31 3.005 0 1.737 1.475-1.447 1.683-2.51.164-2.803.05-2.803-1.084zm7.179.276c-1.148-1.383.11-2.404 1.723-1.397.684.427 1.458.548 1.72.267.263-.28.144-.628-.264-.774-1.798-.643-3.218-2.316-2.829-3.331.804-2.094 4.848-2.009 5.556.116.191.572-.225.665-1.614.36-2.16-.475-2.51.319-.525 1.192 1.577.693 2.057 2.383 1.03 3.621-.952 1.147-3.827 1.115-4.797-.054zm6.6 0c-1.03-1.24.216-2.72 1.341-1.595.826.826 2.28.964 2.28.217 0-.277-.675-.812-1.5-1.188-2.137-.973-2.078-3.54.093-4.086 1.676-.42 3.26.238 3.692 1.533.191.572-.225.665-1.614.36-2.233-.49-2.583.576-.371 1.13 1.643.413 2.076 2.539.78 3.834-1.016 1.016-3.788.895-4.701-.205zM1.8 5.407c-1.205-.306.245-.481 4.385-.529 3.988-.046 6.054.142 5.815.53-.424.685-7.503.685-10.2 0zm3.431-1.646C-.953 3.468.381 2.407 6.935 2.407c4.369 0 5.365.167 5.365.9 0 .569-.497.856-1.35.781-.742-.066-3.316-.212-5.719-.327zM4.2 1.256L.6.907 4.8.462c6.422-.682 8.1-.59 8.1.445 0 .966-1.659 1.032-8.7.35z" fill="#d44035"/></svg>