<svg xmlns="http://www.w3.org/2000/svg" viewBox="0 0 39.087722 34.851619" height="34.852" width="39.088"><path d="M.764 34.08C-.255 33.062-.255 8.938.764 7.92c.396-.396 1.52-.72 2.499-.72 1.358 0 2.667-.852 5.528-3.6L12.54 0h14.241l3.563 3.6c2.82 2.85 3.947 3.6 5.411 3.6 1.017 0 2.173.324 2.569.72 1.018 1.018 1.018 25.142 0 26.16-1.029 1.029-36.531 1.029-37.56 0zm20.17-7.23c.149-1.296.503-1.65 1.65-1.65 1.222 0 1.46-.293 1.46-1.8 0-1.52-.233-1.8-1.5-1.8-1.172 0-1.5-.307-1.5-1.4 0-1.822-.32-2.087-2.114-1.744-1.072.205-1.486.671-1.486 1.674 0 1.07-.38 1.434-1.65 1.58-1.31.15-1.65.5-1.65 1.69s.34 1.54 1.65 1.69c1.391.16 1.65.472 1.65 1.99 0 1.61.174 1.78 1.65 1.61 1.296-.15 1.69-.544 1.84-1.84zm7.564-17.762c.85-1.644.809-1.785-1.063-3.6C25.528 3.64 25.367 3.6 19.783 3.6h-5.704l-2.02 2.085c-1.81 1.866-1.95 2.244-1.331 3.6.688 1.511.711 1.515 8.788 1.515h8.097l.885-1.712z" fill="#d03125"/></svg>