<svg xmlns="http://www.w3.org/2000/svg" viewBox="0 0 35.7 37.2" height="37.2" width="35.7"><path d="M1.96 35.45L0 33.697V3.502L1.96 1.75 3.918 0H31.62l2.04 2.04 2.04 2.04v29.04l-2.04 2.04-2.04 2.04H3.919l-1.96-1.75zm30.467-1.523l1.473-1.472V4.745l-1.473-1.472L30.955 1.8H4.445L2.973 3.273 1.5 4.745v27.71l1.473 1.472L4.445 35.4h26.51l1.472-1.473zm-28.854-.6L2.1 31.855V5.345l1.473-1.472C5.043 2.403 5.064 2.4 17.7 2.4c12.636 0 12.657.002 14.127 1.473L33.3 5.345v26.51l-1.473 1.472c-1.47 1.47-1.491 1.473-14.127 1.473-12.636 0-12.657-.002-14.127-1.473zm11.5-8.727c6.508-6.7 7.15-7.2 9.264-7.2 2.846 0 5.657-2.218 6.19-4.884.526-2.63.06-2.815-2.036-.807-1.535 1.47-2.033 1.638-3.418 1.15-2.548-.896-2.78-3.148-.566-5.509l1.828-1.95h-1.963c-1.382 0-2.498.533-3.764 1.8-1.496 1.495-1.77 2.206-1.626 4.207.163 2.255-.092 2.682-4.03 6.75C5.38 28.046 4.397 29.286 5.095 30.591c1.238 2.313 2.861 1.339 9.979-5.991z" fill="#d13528"/></svg>