<svg xmlns="http://www.w3.org/2000/svg" viewBox="0 0 42.834923 25.220677" height="25.221" width="42.835"><path d="M13.014 4.345H42.82M.31 14.681l42.474-.15M13.977 24.719H42.89" fill="none" stroke="#000" stroke-width=".924"/><path d="M13.042 4.348v-.395h29.76v.789h-29.76v-.394zM.417 14.72v-.374l1.268-.065c.698-.036 10.209-.084 21.136-.107l19.867-.041v.736l-.704.062c-.388.033-9.899.084-21.136.113l-20.43.051v-.374zm20.834 10.453a2112.73 2112.73 0 0 1 14.43 0c3.947.017.684.03-7.252.03s-11.166-.013-7.178-.03zm-7.194-.423v-.394H42.8v.789H14.057v-.394z" fill="#fff"/></svg>