<svg xmlns="http://www.w3.org/2000/svg" viewBox="0 0 29.75478 49.980228" height="49.98" width="29.755"><path d="M6.5 48.847C2.602 47.481 0 45.171 0 43.077c0-2.372 4.574-6.398 6.45-5.678 2.133.819 1.942 2.378-.45 3.658-2.822 1.51-2.49 2.633 1.15 3.902 5.766 2.01 18.85.707 18.85-1.878 0-.43-1.012-1.467-2.25-2.307-1.792-1.216-2-1.786-1.02-2.802.996-1.033 1.713-1.016 3.777.089 3.268 1.748 4.262 5.489 2.095 7.883C25.238 49.66 13.297 51.23 6.5 48.847zm2.3-16.04C2.011 20.512.514 15.577 1.95 10.242c2.13-7.908 11.565-12.563 18.366-9.06 6.715 3.458 9.558 9.82 7.652 17.125-1.077 4.126-11.883 24.75-12.968 24.75-.297 0-3.087-4.613-6.2-10.25zM19.068 15.93c1.8-3.365-.276-6.873-4.068-6.873-2.232 0-3.331.632-4.124 2.373-1.586 3.482.371 6.627 4.124 6.627 1.964 0 3.305-.7 4.068-2.127z" fill="#d13327"/></svg>